<svg width="24" height="22" viewBox="0 0 24 22" fill="none" xmlns="http://www.w3.org/2000/svg">
<path fill-rule="evenodd" clip-rule="evenodd" d="M11.9366 11.7697C13.2111 11.7697 14.2443 10.7365 14.2443 9.46199C14.2443 8.18749 13.2111 7.1543 11.9366 7.1543C10.6621 7.1543 9.62891 8.18749 9.62891 9.46199C9.62891 10.7365 10.6621 11.7697 11.9366 11.7697V11.7697Z" stroke="white" stroke-width="2" stroke-linecap="round" stroke-linejoin="round"/>
<path fill-rule="evenodd" clip-rule="evenodd" d="M11.9392 1C11.4929 1.00017 11.0523 1.10059 10.65 1.29385L2.70846 6.20308V15.8523C2.64308 18.6269 4.83703 20.9303 7.61153 21H16.2669C19.0414 20.9303 21.2354 18.6269 21.17 15.8523V6.20308L13.2285 1.29385C12.8261 1.10059 12.3856 1.00017 11.9392 1Z" stroke="white" stroke-width="2" stroke-linecap="round" stroke-linejoin="round"/>
<path d="M9.58088 14.1514C9.19847 13.7529 8.56544 13.7399 8.16696 14.1223C7.76849 14.5047 7.75546 15.1377 8.13787 15.5362L9.58088 14.1514ZM15.7347 15.5362C16.1171 15.1377 16.1041 14.5047 15.7056 14.1223C15.3072 13.7399 14.6741 13.7529 14.2917 14.1514L15.7347 15.5362ZM3.23214 7.05269C3.70195 6.76235 3.84744 6.14612 3.55709 5.67632C3.26675 5.20651 2.65053 5.06102 2.18072 5.35136L3.23214 7.05269ZM0.642259 6.30213C0.17245 6.59247 0.0269632 7.2087 0.317305 7.67851C0.607647 8.14831 1.22387 8.2938 1.69368 8.00346L0.642259 6.30213ZM21.6937 5.35136C21.2239 5.06102 20.6076 5.20651 20.3173 5.67632C20.027 6.14612 20.1724 6.76235 20.6423 7.05269L21.6937 5.35136ZM22.1807 8.00346C22.6505 8.2938 23.2668 8.14831 23.5571 7.67851C23.8474 7.2087 23.7019 6.59247 23.2321 6.30213L22.1807 8.00346ZM8.13787 15.5362C9.13067 16.5707 10.5025 17.1555 11.9363 17.1555V15.1555C11.0472 15.1555 10.1965 14.7929 9.58088 14.1514L8.13787 15.5362ZM11.9363 17.1555C13.3701 17.1555 14.7419 16.5707 15.7347 15.5362L14.2917 14.1514C13.6761 14.7929 12.8254 15.1555 11.9363 15.1555V17.1555ZM2.18072 5.35136L0.642259 6.30213L1.69368 8.00346L3.23214 7.05269L2.18072 5.35136ZM20.6423 7.05269L22.1807 8.00346L23.2321 6.30213L21.6937 5.35136L20.6423 7.05269Z" fill="white"/>
</svg>
