<svg width="40" height="40" viewBox="0 0 40 40" fill="none" xmlns="http://www.w3.org/2000/svg">
<rect width="40" height="40" rx="8" fill="#02B1BE"/>
<path d="M10.7355 15.3925C10.2619 15.6767 10.1084 16.2909 10.3925 16.7645C10.6767 17.2381 11.2909 17.3916 11.7645 17.1075L10.7355 15.3925ZM17.5 12.5L18.1 11.7C17.7747 11.4561 17.3341 11.4333 16.9855 11.6425L17.5 12.5ZM22.5 16.25L21.9 17.05C22.2648 17.3236 22.7686 17.3158 23.1247 17.0309L22.5 16.25ZM29.3747 12.0309C29.806 11.6859 29.8759 11.0566 29.5309 10.6253C29.1859 10.194 28.5566 10.1241 28.1253 10.4691L29.3747 12.0309ZM26.5 28.75C26.5 29.3023 26.9477 29.75 27.5 29.75C28.0523 29.75 28.5 29.3023 28.5 28.75H26.5ZM28.5 18.75C28.5 18.1977 28.0523 17.75 27.5 17.75C26.9477 17.75 26.5 18.1977 26.5 18.75H28.5ZM16.5 28.75C16.5 29.3023 16.9477 29.75 17.5 29.75C18.0523 29.75 18.5 29.3023 18.5 28.75H16.5ZM18.5 18.75C18.5 18.1977 18.0523 17.75 17.5 17.75C16.9477 17.75 16.5 18.1977 16.5 18.75H18.5ZM21.5 28.75C21.5 29.3023 21.9477 29.75 22.5 29.75C23.0523 29.75 23.5 29.3023 23.5 28.75H21.5ZM23.5 22.5C23.5 21.9477 23.0523 21.5 22.5 21.5C21.9477 21.5 21.5 21.9477 21.5 22.5H23.5ZM11.5 28.75C11.5 29.3023 11.9477 29.75 12.5 29.75C13.0523 29.75 13.5 29.3023 13.5 28.75H11.5ZM13.5 22.5C13.5 21.9477 13.0523 21.5 12.5 21.5C11.9477 21.5 11.5 21.9477 11.5 22.5H13.5ZM11.7645 17.1075L18.0145 13.3575L16.9855 11.6425L10.7355 15.3925L11.7645 17.1075ZM16.9 13.3L21.9 17.05L23.1 15.45L18.1 11.7L16.9 13.3ZM23.1247 17.0309L29.3747 12.0309L28.1253 10.4691L21.8753 15.4691L23.1247 17.0309ZM28.5 28.75V18.75H26.5V28.75H28.5ZM18.5 28.75V18.75H16.5V28.75H18.5ZM23.5 28.75V22.5H21.5V28.75H23.5ZM13.5 28.75V22.5H11.5V28.75H13.5Z" fill="white"/>
</svg>
