<svg width="20" height="20" viewBox="0 0 20 20" fill="none" xmlns="http://www.w3.org/2000/svg">
<path d="M0.735504 5.39251C0.261924 5.67665 0.108359 6.29092 0.392507 6.7645C0.676655 7.23808 1.29092 7.39164 1.7645 7.10749L0.735504 5.39251ZM7.5 2.5L8.1 1.7C7.77473 1.45605 7.33415 1.43332 6.9855 1.64251L7.5 2.5ZM12.5 6.25L11.9 7.05C12.2648 7.32363 12.7686 7.31576 13.1247 7.03087L12.5 6.25ZM19.3747 2.03087C19.806 1.68586 19.8759 1.05657 19.5309 0.625305C19.1859 0.194043 18.5566 0.124122 18.1253 0.469131L19.3747 2.03087ZM16.5 18.75C16.5 19.3023 16.9477 19.75 17.5 19.75C18.0523 19.75 18.5 19.3023 18.5 18.75H16.5ZM18.5 8.75C18.5 8.19772 18.0523 7.75 17.5 7.75C16.9477 7.75 16.5 8.19772 16.5 8.75H18.5ZM6.5 18.75C6.5 19.3023 6.94771 19.75 7.5 19.75C8.05228 19.75 8.5 19.3023 8.5 18.75H6.5ZM8.5 8.75C8.5 8.19771 8.05228 7.75 7.5 7.75C6.94771 7.75 6.5 8.19771 6.5 8.75H8.5ZM11.5 18.75C11.5 19.3023 11.9477 19.75 12.5 19.75C13.0523 19.75 13.5 19.3023 13.5 18.75H11.5ZM13.5 12.5C13.5 11.9477 13.0523 11.5 12.5 11.5C11.9477 11.5 11.5 11.9477 11.5 12.5H13.5ZM1.5 18.75C1.5 19.3023 1.94772 19.75 2.5 19.75C3.05228 19.75 3.5 19.3023 3.5 18.75H1.5ZM3.5 12.5C3.5 11.9477 3.05228 11.5 2.5 11.5C1.94772 11.5 1.5 11.9477 1.5 12.5H3.5ZM1.7645 7.10749L8.0145 3.35749L6.9855 1.64251L0.735504 5.39251L1.7645 7.10749ZM6.9 3.3L11.9 7.05L13.1 5.45L8.1 1.7L6.9 3.3ZM13.1247 7.03087L19.3747 2.03087L18.1253 0.469131L11.8753 5.46913L13.1247 7.03087ZM18.5 18.75V8.75H16.5V18.75H18.5ZM8.5 18.75V8.75H6.5V18.75H8.5ZM13.5 18.75V12.5H11.5V18.75H13.5ZM3.5 18.75V12.5H1.5V18.75H3.5Z" fill="white"/>
</svg>
