<svg width="12" height="13" viewBox="0 0 12 13" fill="none" xmlns="http://www.w3.org/2000/svg">
<path fill-rule="evenodd" clip-rule="evenodd" d="M9.04845 2.33493C9.92993 3.17477 10.4288 4.33911 10.4288 5.55662C10.4288 6.77413 9.92993 7.93847 9.04845 8.77831L5.71439 12L2.38034 8.77831C1.49886 7.93847 1 6.77413 1 5.55662C1 4.33911 1.49886 3.17477 2.38034 2.33493C4.24671 0.555025 7.18208 0.555025 9.04845 2.33493Z" stroke="#273138" stroke-width="1.3" stroke-linecap="round" stroke-linejoin="round"/>
<path fill-rule="evenodd" clip-rule="evenodd" d="M7.59986 5.27481C7.59303 5.76812 7.39049 6.23849 7.03681 6.58245C6.68313 6.9264 6.20729 7.11575 5.71399 7.10882C5.22069 7.11575 4.74485 6.9264 4.39117 6.58245C4.03749 6.23849 3.83495 5.76812 3.82812 5.27481C3.84278 4.24787 4.68704 3.42717 5.71399 3.44159C6.74095 3.42717 7.58521 4.24787 7.59986 5.27481V5.27481Z" stroke="#273138" stroke-width="1.3" stroke-linecap="round" stroke-linejoin="round"/>
</svg>
