<svg width="26" height="26" viewBox="0 0 26 26" fill="none" xmlns="http://www.w3.org/2000/svg">
<path fill-rule="evenodd" clip-rule="evenodd" d="M17.4854 1.33203H8.51206C4.53533 1.3449 1.321 4.82658 1.33206 9.10921V16.8882C1.321 21.1708 4.53533 24.6525 8.51206 24.6654H17.4854C21.4621 24.6525 24.6765 21.1708 24.6654 16.8882V9.10921C24.6765 4.82658 21.4621 1.3449 17.4854 1.33203Z" stroke="white" stroke-width="2" stroke-linecap="round" stroke-linejoin="round"/>
<path d="M6.16534 18.3826C6.16534 18.9349 6.61306 19.3826 7.16534 19.3826C7.71763 19.3826 8.16534 18.9349 8.16534 18.3826H6.16534ZM8.16534 11.2031C8.16534 10.6508 7.71763 10.2031 7.16534 10.2031C6.61306 10.2031 6.16534 10.6508 6.16534 11.2031H8.16534ZM11.9974 18.3825C11.9974 18.9348 12.4451 19.3825 12.9974 19.3825C13.5497 19.3825 13.9974 18.9348 13.9974 18.3825H11.9974ZM13.9974 7.61328C13.9974 7.061 13.5497 6.61328 12.9974 6.61328C12.4451 6.61328 11.9974 7.061 11.9974 7.61328H13.9974ZM17.8294 18.3826C17.8294 18.9349 18.2771 19.3826 18.8294 19.3826C19.3817 19.3826 19.8294 18.9349 19.8294 18.3826H17.8294ZM19.8294 11.2031C19.8294 10.6508 19.3817 10.2031 18.8294 10.2031C18.2771 10.2031 17.8294 10.6508 17.8294 11.2031H19.8294ZM8.16534 18.3826V11.2031H6.16534V18.3826H8.16534ZM13.9974 18.3825V7.61328H11.9974V18.3825H13.9974ZM19.8294 18.3826V11.2031H17.8294V18.3826H19.8294Z" fill="white"/>
</svg>
