<svg width="24" height="26" viewBox="0 0 24 26" fill="none" xmlns="http://www.w3.org/2000/svg">
<path d="M12.0971 20.1524C11.9391 19.8141 11.612 19.5673 11.2162 19.5234C10.8811 19.4861 10.5529 19.4161 10.2409 19.3151C10.1009 19.2692 9.96958 19.2191 9.84805 19.1654L10.05 18.6286C10.1926 18.6907 10.3396 18.7476 10.49 18.7989L10.4963 18.801L10.5026 18.8031C10.9854 18.9586 11.4605 19.0374 11.9145 19.0374C12.3702 19.0374 12.7006 18.9779 12.9545 18.8501L12.9697 18.8425L12.9845 18.8342C13.369 18.6191 13.5896 18.2492 13.5896 17.8195C13.5896 17.3425 13.3257 16.9467 12.8654 16.7327C12.634 16.6229 12.3051 16.5181 11.8315 16.4033C11.3457 16.2835 10.9375 16.1564 10.6211 16.0262C10.3896 15.9242 10.189 15.7613 10.008 15.5284C9.85237 15.3207 9.77344 15.0081 9.77344 14.5991C9.77344 14.1058 9.91596 13.6986 10.2091 13.3541C10.4702 13.0523 10.8409 12.8474 11.3384 12.7324C11.7073 12.647 11.9952 12.3903 12.1246 12.0586C12.2708 12.3949 12.5822 12.6448 12.9695 12.705C13.293 12.7553 13.5902 12.8353 13.8572 12.9437L13.6713 13.4698C13.167 13.2724 12.6706 13.1727 12.1906 13.1727C10.5962 13.1727 10.5155 14.2451 10.5155 14.4601C10.5155 14.9261 10.7736 15.317 11.2237 15.5324L11.2363 15.5384L11.2492 15.544C11.4764 15.6429 11.7991 15.7382 12.2647 15.8441C12.746 15.9501 13.1474 16.0716 13.4628 16.2064L13.4693 16.2091L13.4758 16.2118C13.7101 16.3068 13.911 16.4655 14.09 16.6969L14.0929 16.7006L14.0958 16.7042C14.2523 16.9016 14.3316 17.2066 14.3316 17.611C14.3316 18.0778 14.193 18.473 13.9077 18.8191C13.6604 19.1193 13.3149 19.3271 12.8514 19.4544C12.4936 19.5527 12.2159 19.8194 12.0971 20.1524Z" fill="black" stroke="white" stroke-width="2"/>
<path d="M12.4995 21.549H11.7313C11.5595 21.549 11.4202 21.4098 11.4202 21.2379V20.6134C11.4202 20.4491 11.2924 20.3141 11.1291 20.2959C10.7401 20.2527 10.3638 20.1723 10.0002 20.0547C9.64703 19.9388 9.34102 19.8012 9.08221 19.6418C8.96325 19.5686 8.91999 19.4198 8.96916 19.2891L9.49606 17.8882C9.56703 17.6996 9.79602 17.6275 9.97242 17.725C10.2105 17.8565 10.4662 17.969 10.7398 18.0623C11.1474 18.1936 11.5385 18.2592 11.9133 18.2592C12.2354 18.2592 12.4655 18.2245 12.6035 18.155C12.7416 18.0777 12.8106 17.9657 12.8106 17.819C12.8106 17.6491 12.7186 17.5217 12.5345 17.4367C12.357 17.3518 12.0612 17.2591 11.647 17.1587C11.1145 17.0274 10.6708 16.8884 10.3158 16.7417C9.9608 16.5873 9.65182 16.3401 9.38887 16.0003C9.1259 15.6528 8.99443 15.1856 8.99443 14.5987C8.99443 13.9191 9.20152 13.336 9.61567 12.8495C9.98886 12.418 10.5043 12.1262 11.162 11.9741C11.31 11.9399 11.4202 11.8115 11.4202 11.6596V10.9713C11.4202 10.7994 11.5595 10.6602 11.7313 10.6602H12.4995C12.6713 10.6602 12.8106 10.7994 12.8106 10.9713V11.6202C12.8106 11.7792 12.9306 11.9116 13.0877 11.936C13.6637 12.0255 14.1699 12.1949 14.6062 12.4443C14.7299 12.515 14.7791 12.6656 14.7316 12.8L14.2385 14.1952C14.1731 14.3801 13.9553 14.4583 13.7802 14.3701C13.2247 14.09 12.6944 13.95 12.1894 13.95C11.5911 13.95 11.292 14.1199 11.292 14.4597C11.292 14.6219 11.3808 14.7454 11.5583 14.8304C11.7358 14.9076 12.0283 14.9925 12.4359 15.0852C12.9618 15.2011 13.4055 15.3362 13.7671 15.4907C14.1287 15.6374 14.4409 15.8806 14.7039 16.2204C14.9734 16.5602 15.1082 17.0236 15.1082 17.6105C15.1082 18.2592 14.9077 18.8268 14.5067 19.3134C14.1573 19.7375 13.6738 20.0343 13.0562 20.204C12.9143 20.2429 12.8106 20.3686 12.8106 20.5158V21.2379C12.8106 21.4098 12.6713 21.549 12.4995 21.549Z" fill="#02B1BE" stroke="white" stroke-width="1.5"/>
<path fill-rule="evenodd" clip-rule="evenodd" d="M8.69423 1.33203H15.4298C17.1549 1.33203 16.2076 3.92048 15.5091 5.49936L14.7142 7.31003L14.6069 7.55425C15.3598 7.51772 16.1043 7.72621 16.7287 8.14848C19.0642 10.2855 20.9597 12.8584 22.3085 15.7225C22.8341 16.7816 23.0426 17.9699 22.9089 19.1447C22.7484 22.139 20.3462 24.5251 17.3509 24.6654H6.77312C3.77704 24.5292 1.37122 22.1456 1.20734 19.1509C1.07363 17.9762 1.28214 16.7878 1.80778 15.7287C3.15815 12.8618 5.05632 10.2867 7.39534 8.14848C8.01975 7.72621 8.76421 7.51772 9.51712 7.55425L9.39267 7.2727L8.6149 5.49936C7.91956 3.92048 6.96756 1.33203 8.69423 1.33203Z" stroke="white" stroke-width="2" stroke-linecap="round" stroke-linejoin="round"/>
<path d="M14.6054 8.55516C15.1577 8.55516 15.6054 8.10744 15.6054 7.55516C15.6054 7.00287 15.1577 6.55516 14.6054 6.55516V8.55516ZM9.51562 6.55516C8.96334 6.55516 8.51562 7.00287 8.51562 7.55516C8.51562 8.10744 8.96334 8.55516 9.51562 8.55516V6.55516ZM18.7701 6.8797C19.2516 6.60925 19.4227 5.99964 19.1523 5.51811C18.8818 5.03658 18.2722 4.86547 17.7907 5.13592L18.7701 6.8797ZM14.7104 7.31915L14.8987 8.30126L14.9015 8.30072L14.7104 7.31915ZM9.38883 7.28181L9.59089 6.3024L9.58197 6.30064L9.38883 7.28181ZM6.31029 5.12748C5.8241 4.8655 5.21758 5.04726 4.9556 5.53346C4.69362 6.01965 4.87539 6.62617 5.36158 6.88815L6.31029 5.12748ZM14.6054 6.55516H9.51562V8.55516H14.6054V6.55516ZM17.7907 5.13592C16.7713 5.70846 15.6669 6.11414 14.5193 6.33758L14.9015 8.30072C16.2586 8.03649 17.5646 7.55675 18.7701 6.8797L17.7907 5.13592ZM14.5221 6.33703C12.892 6.64955 11.2164 6.6378 9.59088 6.30244L9.18677 8.26119C11.0696 8.64964 13.0106 8.66325 14.8987 8.30126L14.5221 6.33703ZM9.58197 6.30064C8.43882 6.07561 7.33596 5.68015 6.31029 5.12748L5.36158 6.88815C6.56357 7.53582 7.85602 7.99927 9.19568 8.26298L9.58197 6.30064Z" fill="white"/>
</svg>
