<svg width="26" height="26" viewBox="0 0 26 26" fill="none" xmlns="http://www.w3.org/2000/svg">
<path fill-rule="evenodd" clip-rule="evenodd" d="M24.6654 12.9987C24.6654 19.442 19.442 24.6654 12.9987 24.6654C6.55538 24.6654 1.33203 19.442 1.33203 12.9987C1.33203 6.55538 6.55538 1.33203 12.9987 1.33203C16.0929 1.33203 19.0604 2.56119 21.2483 4.74912C23.4362 6.93704 24.6654 9.90451 24.6654 12.9987Z" stroke="white" stroke-width="2" stroke-linecap="round" stroke-linejoin="round"/>
<path d="M12.9947 17.9502C12.4424 17.9502 11.9947 18.3979 11.9947 18.9502C11.9947 19.5025 12.4424 19.9502 12.9947 19.9502V17.9502ZM10.4947 11.3319L11.1914 10.6146C11.1527 10.577 11.111 10.5425 11.0667 10.5117L10.4947 11.3319ZM9.66132 9.66521L10.6607 9.69969C10.6611 9.6882 10.6613 9.67671 10.6613 9.66521H9.66132ZM12.9947 8.04688C13.5469 8.04688 13.9947 7.59916 13.9947 7.04688C13.9947 6.49459 13.5469 6.04688 12.9947 6.04688V8.04688ZM12.9569 19.9507C13.5087 19.9733 13.9743 19.5443 13.9969 18.9924C14.0195 18.4406 13.5904 17.975 13.0386 17.9524L12.9569 19.9507ZM10.6554 15.1104C10.7293 14.5631 10.3456 14.0595 9.79825 13.9856C9.25094 13.9116 8.74733 14.2954 8.6734 14.8427L10.6554 15.1104ZM13.9974 18.9492C13.9974 18.3969 13.5497 17.9492 12.9974 17.9492C12.4451 17.9492 11.9974 18.3969 11.9974 18.9492H13.9974ZM11.9974 21.3309C11.9974 21.8832 12.4451 22.3309 12.9974 22.3309C13.5497 22.3309 13.9974 21.8832 13.9974 21.3309H11.9974ZM12.9437 6.0457C12.3923 6.07678 11.9705 6.54898 12.0016 7.10039C12.0327 7.6518 12.5049 8.07361 13.0563 8.04254L12.9437 6.0457ZM15.5285 8.07253L14.7913 8.74822L15.5285 8.07253ZM15.3436 10.538C15.2647 11.0846 15.6439 11.5917 16.1905 11.6705C16.7372 11.7494 17.2442 11.3702 17.3231 10.8236L15.3436 10.538ZM11.9974 7.04573C11.9974 7.59801 12.4451 8.04573 12.9974 8.04573C13.5497 8.04573 13.9974 7.59801 13.9974 7.04573H11.9974ZM13.9974 4.66406C13.9974 4.11178 13.5497 3.66406 12.9974 3.66406C12.4451 3.66406 11.9974 4.11178 11.9974 4.66406H13.9974ZM12.9947 19.9502C13.6708 19.9502 14.6885 19.7955 15.575 19.2881C16.5107 18.7524 17.328 17.7926 17.328 16.3002H15.328C15.328 16.9278 15.0344 17.293 14.5814 17.5524C14.0791 17.8399 13.4302 17.9502 12.9947 17.9502V19.9502ZM17.328 16.3002C17.328 15.3775 17.0401 14.6368 16.5241 14.0408C16.0414 13.4833 15.4023 13.1053 14.8078 12.7982C13.5398 12.1432 12.3016 11.6929 11.1914 10.6146L9.7979 12.0492C11.1877 13.3992 12.8662 14.0464 13.8899 14.5751C14.4412 14.8599 14.7917 15.0954 15.0121 15.3499C15.1992 15.5661 15.328 15.8363 15.328 16.3002H17.328ZM11.0667 10.5117C10.8025 10.3274 10.6496 10.0217 10.6607 9.69969L8.66191 9.63072C8.62741 10.6306 9.10201 11.5798 9.9226 12.1521L11.0667 10.5117ZM10.6613 9.66521C10.6613 9.19163 10.765 8.90628 10.8749 8.72971C10.9846 8.55344 11.1412 8.41995 11.353 8.31559C11.8193 8.0859 12.4411 8.04688 12.9947 8.04688V6.04688C12.4365 6.04688 11.3917 6.06702 10.4692 6.52149C9.98665 6.75921 9.51839 7.12406 9.17677 7.67311C8.83533 8.22184 8.66132 8.88878 8.66132 9.66521H10.6613ZM13.0386 17.9524C12.3333 17.9235 11.6728 17.5988 11.2192 17.0579L9.68669 18.343C10.5019 19.3152 11.6891 19.8989 12.9569 19.9507L13.0386 17.9524ZM11.2192 17.0579C10.7656 16.517 10.5609 15.81 10.6554 15.1104L8.6734 14.8427C8.50357 16.1001 8.87143 17.3708 9.68669 18.343L11.2192 17.0579ZM11.9974 18.9492V21.3309H13.9974V18.9492H11.9974ZM13.0563 8.04254C13.7112 8.00562 14.3481 8.26466 14.7913 8.74822L16.2657 7.39683C15.4171 6.471 14.1976 5.97503 12.9437 6.0457L13.0563 8.04254ZM14.7913 8.74822C15.2345 9.23177 15.4373 9.88876 15.3436 10.538L17.3231 10.8236C17.5024 9.58055 17.1143 8.32266 16.2657 7.39683L14.7913 8.74822ZM13.9974 7.04573V4.66406H11.9974V7.04573H13.9974Z" fill="white"/>
</svg>
