<svg width="26" height="26" viewBox="0 0 26 26" fill="none" xmlns="http://www.w3.org/2000/svg">
<path fill-rule="evenodd" clip-rule="evenodd" d="M17.4855 1.33203H8.51214C6.59727 1.34261 4.76503 2.11345 3.41851 3.47497C2.072 4.83649 1.3215 6.67716 1.33214 8.59203V17.4054C1.3215 19.3202 2.072 21.1609 3.41851 22.5224C4.76503 23.8839 6.59727 24.6548 8.51214 24.6654H17.4855C19.4003 24.6548 21.2326 23.8839 22.5791 22.5224C23.9256 21.1609 24.6761 19.3202 24.6655 17.4054V8.59203C24.6761 6.67716 23.9256 4.83649 22.5791 3.47497C21.2326 2.11345 19.4003 1.34261 17.4855 1.33203Z" stroke="white" stroke-width="2" stroke-linecap="round" stroke-linejoin="round"/>
<path d="M14.1367 10.5469H19.7134V16.1052" stroke="white" stroke-width="2" stroke-linecap="round" stroke-linejoin="round"/>
<path d="M19.716 10.5469L12.716 17.7469C12.1029 18.3596 11.1226 18.4002 10.461 17.8402L8.96099 16.5652C8.6113 16.2681 8.15457 16.1282 7.69847 16.1787C7.24237 16.2292 6.82726 16.4655 6.55099 16.8319C6.48599 16.9185 6.42266 17.0069 6.34932 17.0869L2.47266 21.3319" stroke="white" stroke-width="2" stroke-linecap="round" stroke-linejoin="round"/>
</svg>
