<svg width="24" height="26" viewBox="0 0 24 26" fill="none" xmlns="http://www.w3.org/2000/svg">
<path fill-rule="evenodd" clip-rule="evenodd" d="M22.941 7.20122C23.1504 18.6106 16.312 23.4642 12.4347 24.6084C12.1778 24.6844 11.9044 24.6844 11.6475 24.6084C7.83388 23.4826 1.19142 18.7726 1.16797 7.7691C1.19073 6.817 1.72837 5.95173 2.57317 5.50761C8.47535 2.19053 11.3142 1.33203 12.0361 1.33203C12.7579 1.33203 15.8213 2.24732 22.1153 5.84165C22.6109 6.11883 22.9243 6.63489 22.941 7.20122Z" stroke="white" stroke-width="2" stroke-linecap="round" stroke-linejoin="round"/>
<path d="M12.0605 16.7937C11.5082 16.7937 11.0605 17.2414 11.0605 17.7937C11.0605 18.346 11.5082 18.7937 12.0605 18.7937V16.7937ZM10.1763 11.6857L10.895 10.9903C10.8602 10.9544 10.8227 10.9211 10.783 10.8907L10.1763 11.6857ZM9.54822 10.3495L10.5474 10.3905C10.5479 10.3768 10.5482 10.3632 10.5482 10.3495H9.54822ZM12.0605 9.25C12.6128 9.25 13.0605 8.80228 13.0605 8.25C13.0605 7.69772 12.6128 7.25 12.0605 7.25V9.25ZM12.0592 18.7945C12.6114 18.7945 13.0592 18.3468 13.0592 17.7945C13.0592 17.2422 12.6114 16.7945 12.0592 16.7945V18.7945ZM10.5469 14.6094C10.5469 14.0571 10.0992 13.6094 9.54688 13.6094C8.99459 13.6094 8.54688 14.0571 8.54688 14.6094H10.5469ZM13.064 17.7969C13.064 17.2446 12.6163 16.7969 12.064 16.7969C11.5117 16.7969 11.064 17.2446 11.064 17.7969H13.064ZM11.064 19.7059C11.064 20.2582 11.5117 20.7059 12.064 20.7059C12.6163 20.7059 13.064 20.2582 13.064 19.7059H11.064ZM12.0547 7.25C11.5024 7.25 11.0547 7.69772 11.0547 8.25C11.0547 8.80228 11.5024 9.25 12.0547 9.25V7.25ZM13.567 11.1662C13.567 11.7185 14.0147 12.1662 14.567 12.1662C15.1193 12.1662 15.567 11.7185 15.567 11.1662H13.567ZM11.064 8.25282C11.064 8.80511 11.5117 9.25282 12.064 9.25282C12.6163 9.25282 13.064 8.80511 13.064 8.25282H11.064ZM13.064 6.34375C13.064 5.79147 12.6163 5.34375 12.064 5.34375C11.5117 5.34375 11.064 5.79147 11.064 6.34375H13.064ZM12.0605 18.7937C12.6105 18.7937 13.4317 18.6598 14.1514 18.2209C14.9232 17.7501 15.5728 16.9195 15.5728 15.6692H13.5728C13.5728 16.1141 13.3849 16.3457 13.11 16.5134C12.7828 16.7129 12.3479 16.7937 12.0605 16.7937V18.7937ZM15.5728 15.6692C15.5728 14.9002 15.347 14.2676 14.9264 13.7508C14.5344 13.2691 14.019 12.9476 13.5625 12.697C12.577 12.1556 11.699 11.8213 10.895 10.9903L9.45761 12.381C10.5378 13.4975 11.858 14.0425 12.5997 14.4499C13.0069 14.6736 13.2373 14.8438 13.3752 15.0132C13.4845 15.1476 13.5728 15.3258 13.5728 15.6692H15.5728ZM10.783 10.8907C10.6267 10.7715 10.5394 10.5847 10.5474 10.3905L8.54906 10.3084C8.51426 11.156 8.89568 11.9663 9.56963 12.4806L10.783 10.8907ZM10.5482 10.3495C10.5482 9.98921 10.6225 9.78959 10.6862 9.68082C10.7479 9.57521 10.8332 9.49747 10.9546 9.43384C11.2409 9.28375 11.6463 9.25 12.0605 9.25V7.25C11.6373 7.25 10.7865 7.26385 10.0261 7.66243C9.62408 7.87314 9.23827 8.195 8.95985 8.67094C8.68327 9.14373 8.54822 9.7076 8.54822 10.3495H10.5482ZM12.0592 16.7945C11.8567 16.7945 11.4792 16.7076 11.1631 16.4191C10.8776 16.1585 10.5469 15.6465 10.5469 14.6094H8.54688C8.54688 16.121 9.05358 17.2016 9.81486 17.8963C10.5456 18.5633 11.4241 18.7945 12.0592 18.7945V16.7945ZM11.064 17.7969V19.7059H13.064V17.7969H11.064ZM12.0547 9.25C12.3558 9.25 12.7289 9.32052 13.0078 9.53921C13.2402 9.72145 13.567 10.1304 13.567 11.1662H15.567C15.567 9.65326 15.0564 8.60411 14.242 7.96544C13.474 7.36321 12.591 7.25 12.0547 7.25V9.25ZM13.064 8.25282V6.34375H11.064V8.25282H13.064Z" fill="white"/>
</svg>
